REM DIRINDEX 1\2,1\3
REM DIRNAME cjc039,folder01,folder02
TITLE ""
FILE "2721-2740.mp3" MP3
  TRACK 01 AUDIO
    TITLE "0:"
    INDEX 01 00:00:00
  TRACK 02 AUDIO
    TITLE "2:cjc039_4441"
    INDEX 01 00:00:27
  TRACK 03 AUDIO
    TITLE "0:"
    INDEX 01 00:01:21
  TRACK 04 AUDIO
    TITLE "3:cjc039_4442"
    INDEX 01 00:01:73
  TRACK 05 AUDIO
    TITLE "0:"
    INDEX 01 00:05:01
  TRACK 06 AUDIO
    TITLE "2:cjc039_4443"
    INDEX 01 00:06:47
  TRACK 07 AUDIO
    TITLE "0:"
    INDEX 01 00:07:72
  TRACK 08 AUDIO
    TITLE "3:cjc039_4444"
    INDEX 01 00:08:46
  TRACK 09 AUDIO
    TITLE "0:"
    INDEX 01 00:12:42
  TRACK 10 AUDIO
    TITLE "2:cjc039_4445"
    INDEX 01 00:14:17
  TRACK 11 AUDIO
    TITLE "0:"
    INDEX 01 00:15:17
  TRACK 12 AUDIO
    TITLE "3:cjc039_4446"
    INDEX 01 00:15:70
  TRACK 13 AUDIO
    TITLE "0:"
    INDEX 01 00:19:11
  TRACK 14 AUDIO
    TITLE "2:cjc039_4447"
    INDEX 01 00:20:63
  TRACK 15 AUDIO
    TITLE "0:"
    INDEX 01 00:22:29
  TRACK 16 AUDIO
    TITLE "3:cjc039_4448"
    INDEX 01 00:23:03
  TRACK 17 AUDIO
    TITLE "0:"
    INDEX 01 00:27:18
  TRACK 18 AUDIO
    TITLE "2:cjc039_4449"
    INDEX 01 00:28:70
  TRACK 19 AUDIO
    TITLE "0:"
    INDEX 01 00:29:72
  TRACK 20 AUDIO
    TITLE "3:cjc039_4450"
    INDEX 01 00:30:48
  TRACK 21 AUDIO
    TITLE "0:"
    INDEX 01 00:34:18
  TRACK 22 AUDIO
    TITLE "2:cjc039_4451"
    INDEX 01 00:35:68
  TRACK 23 AUDIO
    TITLE "0:"
    INDEX 01 00:37:10
  TRACK 24 AUDIO
    TITLE "3:cjc039_4452"
    INDEX 01 00:37:67
  TRACK 25 AUDIO
    TITLE "0:"
    INDEX 01 00:41:49
  TRACK 26 AUDIO
    TITLE "2:cjc039_4453"
    INDEX 01 00:43:29
  TRACK 27 AUDIO
    TITLE "0:"
    INDEX 01 00:44:50
  TRACK 28 AUDIO
    TITLE "3:cjc039_4454"
    INDEX 01 00:45:26
  TRACK 29 AUDIO
    TITLE "0:"
    INDEX 01 00:48:65
  TRACK 30 AUDIO
    TITLE "2:cjc039_4455"
    INDEX 01 00:50:44
  TRACK 31 AUDIO
    TITLE "0:"
    INDEX 01 00:51:58
  TRACK 32 AUDIO
    TITLE "3:cjc039_4456"
    INDEX 01 00:52:24
  TRACK 33 AUDIO
    TITLE "0:"
    INDEX 01 00:55:55
  TRACK 34 AUDIO
    TITLE "2:cjc039_4457"
    INDEX 01 00:57:33
  TRACK 35 AUDIO
    TITLE "0:"
    INDEX 01 00:58:46
  TRACK 36 AUDIO
    TITLE "3:cjc039_4458"
    INDEX 01 00:59:24
  TRACK 37 AUDIO
    TITLE "0:"
    INDEX 01 01:02:54
  TRACK 38 AUDIO
    TITLE "2:cjc039_4459"
    INDEX 01 01:04:31
  TRACK 39 AUDIO
    TITLE "0:"
    INDEX 01 01:05:58
  TRACK 40 AUDIO
    TITLE "3:cjc039_4460"
    INDEX 01 01:06:36
  TRACK 41 AUDIO
    TITLE "0:"
    INDEX 01 01:10:47
  TRACK 42 AUDIO
    TITLE "2:cjc039_4461"
    INDEX 01 01:12:28
  TRACK 43 AUDIO
    TITLE "0:"
    INDEX 01 01:13:71
  TRACK 44 AUDIO
    TITLE "3:cjc039_4462"
    INDEX 01 01:14:49
  TRACK 45 AUDIO
    TITLE "0:"
    INDEX 01 01:19:07
  TRACK 46 AUDIO
    TITLE "2:cjc039_4463"
    INDEX 01 01:20:61
  TRACK 47 AUDIO
    TITLE "0:"
    INDEX 01 01:22:01
  TRACK 48 AUDIO
    TITLE "3:cjc039_4464"
    INDEX 01 01:22:60
  TRACK 49 AUDIO
    TITLE "0:"
    INDEX 01 01:27:14
  TRACK 50 AUDIO
    TITLE "2:cjc039_4465"
    INDEX 01 01:28:65
  TRACK 51 AUDIO
    TITLE "0:"
    INDEX 01 01:30:11
  TRACK 52 AUDIO
    TITLE "3:cjc039_4466"
    INDEX 01 01:30:67
  TRACK 53 AUDIO
    TITLE "0:"
    INDEX 01 01:34:40
  TRACK 54 AUDIO
    TITLE "2:cjc039_4467"
    INDEX 01 01:36:13
  TRACK 55 AUDIO
    TITLE "0:"
    INDEX 01 01:37:21
  TRACK 56 AUDIO
    TITLE "3:cjc039_4468"
    INDEX 01 01:37:71
  TRACK 57 AUDIO
    TITLE "0:"
    INDEX 01 01:41:20
  TRACK 58 AUDIO
    TITLE "2:cjc039_4469"
    INDEX 01 01:43:00
  TRACK 59 AUDIO
    TITLE "0:"
    INDEX 01 01:44:01
  TRACK 60 AUDIO
    TITLE "3:cjc039_4470"
    INDEX 01 01:44:54
  TRACK 61 AUDIO
    TITLE "0:"
    INDEX 01 01:48:56
  TRACK 62 AUDIO
    TITLE "2:cjc039_4471"
    INDEX 01 01:50:37
  TRACK 63 AUDIO
    TITLE "0:"
    INDEX 01 01:51:60
  TRACK 64 AUDIO
    TITLE "3:cjc039_4472"
    INDEX 01 01:52:44
  TRACK 65 AUDIO
    TITLE "0:"
    INDEX 01 01:56:24
  TRACK 66 AUDIO
    TITLE "2:cjc039_4473"
    INDEX 01 01:58:01
  TRACK 67 AUDIO
    TITLE "0:"
    INDEX 01 01:59:14
  TRACK 68 AUDIO
    TITLE "3:cjc039_4474"
    INDEX 01 01:59:73
  TRACK 69 AUDIO
    TITLE "0:"
    INDEX 01 02:03:36
  TRACK 70 AUDIO
    TITLE "2:cjc039_4475"
    INDEX 01 02:05:15
  TRACK 71 AUDIO
    TITLE "0:"
    INDEX 01 02:06:30
  TRACK 72 AUDIO
    TITLE "3:cjc039_4476"
    INDEX 01 02:07:08
  TRACK 73 AUDIO
    TITLE "0:"
    INDEX 01 02:11:17
  TRACK 74 AUDIO
    TITLE "2:cjc039_4477"
    INDEX 01 02:12:72
  TRACK 75 AUDIO
    TITLE "0:"
    INDEX 01 02:14:06
  TRACK 76 AUDIO
    TITLE "3:cjc039_4478"
    INDEX 01 02:14:57
  TRACK 77 AUDIO
    TITLE "0:"
    INDEX 01 02:18:23
  TRACK 78 AUDIO
    TITLE "2:cjc039_4479"
    INDEX 01 02:19:74
  TRACK 79 AUDIO
    TITLE "0:"
    INDEX 01 02:21:37
  TRACK 80 AUDIO
    TITLE "3:cjc039_4480"
    INDEX 01 02:22:23
  TRACK 81 AUDIO
    TITLE "0:"
    INDEX 01 02:25:47
